<?xml version="1.0" standalone="no"?><!DOCTYPE svg PUBLIC "-//W3C//DTD SVG 1.1//EN" "http://www.w3.org/Graphics/SVG/1.1/DTD/svg11.dtd"><svg t="1615022555799" class="icon" viewBox="0 0 1024 1024" version="1.1" xmlns="http://www.w3.org/2000/svg" p-id="4567" xmlns:xlink="http://www.w3.org/1999/xlink" width="200" height="200"><defs><style type="text/css"></style></defs><path d="M837.6453125 738.7608073l-87.92929687-152.19140625a291.853125 291.853125 0 0 0 62.44277343-181.2375c0-78.62695313-30.61230469-152.46035156-86.17324218-208.10039063A292.32773438 292.32773438 0 0 0 517.86933594 110.97916667c-78.62695313 0-152.47617188 30.628125-208.11621094 86.15742188A292.56503906 292.56503906 0 0 0 223.59570312 405.23697917c0 72.74179688 26.1984375 141.43359375 74.19726563 195.31757813l-79.734375 138.20625a49.26445312 49.26445312 0 0 0 3.59121094 54.81738281 49.359375 49.359375 0 0 0 51.96972656 17.65546875l52.33359375-13.98515625 13.96933594 52.23867187a49.31191406 49.31191406 0 0 0 41.29101562 36.22851563c2.21484375 0.26894531 4.31894531 0.45878906 6.53378906 0.45878906a49.50175781 49.50175781 0 0 0 42.76230469-24.74296875L524.03925781 699.49479167c2.57871094-0.07910156 5.14160156-0.07910156 7.7203125-0.26894531l93.5296875 162.1265625a49.24863281 49.24863281 0 0 0 49.20117188 24.26835937 49.29609375 49.29609375 0 0 0 41.29101562-36.22851562l13.98515625-52.31777344 52.23867188 13.96933594a49.24863281 49.24863281 0 0 0 51.95390625-17.65546875 49.15371094 49.15371094 0 0 0 3.68613281-54.62753906zM351.42382812 238.80729167A233.74511719 233.74511719 0 0 1 517.85351563 169.83072917c62.91738281 0 122.03789063 24.45820313 166.46132812 68.9765625a233.69765625 233.69765625 0 0 1 68.9765625 166.4296875c0 51.87480469-16.73789063 101.25-47.54003906 141.89238281l-14.175 15.63046875a234.07734375 234.07734375 0 0 1-147.77753907 75.22558594l-20.78789062 2.29394531-14.44394531-0.55371093c-57.8390625-2.29394531-112.48242188-25.37578125-153.66269532-65.02148438l-10.21992187-9.82441406A234.36210938 234.36210938 0 0 1 282.44726562 405.23697917c0-62.91738281 24.45820313-122.03789063 68.97656251-166.46132812zM517.85351563 537.6529948c73.0265625 0 132.43183594-59.40527344 132.43183593-132.41601563 0-73.01074219-59.40527344-132.41601563-132.41601562-132.41601563-73.0265625 0-132.43183594 59.40527344-132.43183594 132.41601563 0 73.01074219 59.40527344 132.41601563 132.41601563 132.41601563z" fill="#d81e06" p-id="4568"></path></svg>