<?xml version="1.0" standalone="no"?><!DOCTYPE svg PUBLIC "-//W3C//DTD SVG 1.1//EN" "http://www.w3.org/Graphics/SVG/1.1/DTD/svg11.dtd"><svg t="1615022527381" class="icon" viewBox="0 0 1024 1024" version="1.1" xmlns="http://www.w3.org/2000/svg" p-id="3061" xmlns:xlink="http://www.w3.org/1999/xlink" width="200" height="200"><defs><style type="text/css"></style></defs><path d="M559.8848 51.2L768.0128 264.3456l-70.7584 74.0352-213.6576-209.92L559.8848 51.2zM201.024 401.5616l216.6272 222.0544L331.1232 716.8 102.4128 492.8l98.6112-91.2384z" fill="#8DB9FF" p-id="3062"></path><path d="M581.6448 918.016H49.1648a21.504 21.504 0 0 1-21.4528-21.8624v-4.5056a21.504 21.504 0 0 1 21.4528-21.8624h532.48a21.504 21.504 0 0 1 21.4016 21.8624v4.5056a21.504 21.504 0 0 1-21.4016 21.8624zM679.3344 1024H23.3088A23.6544 23.6544 0 0 1 0.0128 999.5776a24.064 24.064 0 0 1 23.296-24.4224h656.0256c13.2096 0 23.9104 10.9568 23.9104 24.4224s-10.7008 24.4224-23.9104 24.4224z m282.2656-161.28c-12.5952 12.8512-45.9776 19.3024-59.1872 6.4L524.3008 511.2832a4.9664 4.9664 0 0 1-1.28-2.56c0-0.6656 0-1.28 0.6656-1.9456 1.2288-1.28 1.8944-2.56 3.7376-3.84l55.5008-61.696a26.7776 26.7776 0 0 0 4.4032-3.8912l373.7088 366.8992c13.824 12.1856 13.824 45.568 0.5632 58.4704zM427.2768 551.7824l-133.632-138.1376c30.8736-21.8624 86.3232-75.2128 119.0912-106.7008 32.768-32.1024 66.816-75.776 88.8832-105.984l137.3696 138.0864c-22.6816 16.128-70.6048 57.2416-98.304 80.384-10.0864 8.96-20.1728 17.92-28.9792 26.3168-34.048 32.1024-61.7472 75.776-84.48 105.984zM336.4992 711.68L115.9808 499.712 221.1968 404.6336l206.6944 211.3536-91.392 95.744zM587.328 44.8l215.5008 209.4592L705.8048 353.28l-215.552-217.1904L587.328 44.8z m45.3632 370.7392c12.5952-9.6256 24.576-24.4224 33.9968-30.8736 10.0864 9.0624 23.9616 13.5168 37.2224 13.5168 14.4896 0 30.208-5.7856 40.96-16.6912l85.7088-84.1728 0.6144-0.6144c22.6816-22.528 22.016-57.1904-0.6144-79.0528L627.6224 19.0976l-1.2288-1.28a57.2928 57.2928 0 0 0-80.6912 1.28L460.6592 102.656l-0.6144 0.6144a54.528 54.528 0 0 0-2.56 75.8272c-20.1728 27.648-56.064 75.1616-89.4464 107.9296-32.1536 31.488-80.0256 66.816-109.056 86.784a58.7776 58.7776 0 0 0-78.7456 2.56L95.1424 461.1072c-10.7008 10.2912-16.9984 25.088-16.9984 40.448 0 14.848 6.2976 29.5936 16.9984 40.4992l202.2912 197.2736a58.7776 58.7776 0 0 0 81.92 0l85.7088-83.5584a55.1424 55.1424 0 0 0 3.7888-75.776c6.2976-9.6256 15.104-27.0336 24.576-38.5536l363.008 361.728c18.8416 19.2512 44.6976 27.648 69.888 27.648 26.5216 0 51.712-16.7424 69.9904-34.0992 38.4-38.5536 25.8048-89.2928-6.3488-131.072l-357.2736-350.1568z" fill="#1257E0" p-id="3063"></path></svg>